# xmcd
#
# Track frame offsets: 
#        150
#        15705
#        48175
#        87173
#        99871
#        122639
#        140386
#        159489
#        177865
#        198553
#
# Disc length: 3118 seconds
#
# Revision: 3
# Processed by: cddbd v1.5.2PL0 Copyright (c) Steve Scherf et al.
# Submitted via: ExactAudioCopy v0.99pb4
#
DISCID=760c2c0a
DTITLE=Ron Wood and Bo Diddley - Live At The Ritz
DYEAR=1987
DGENRE=Blues
TTITLE0=Road Runner
TTITLE1=I'm A Man
TTITLE2=Crackin' Up
TTITLE3=Hey Bo Diddley
TTITLE4=Plynth/Water Down The Drain
TTITLE5=Ooh La La Song
TTITLE6=They Don't Make Outlaws Like They Used to
TTITLE7=Honky Tonk Women
TTITLE8=Money To Ronnie
TTITLE9=Who Do You Love
EXTD=
EXTT0=
EXTT1=
EXTT2=
EXTT3=
EXTT4=
EXTT5=
EXTT6=
EXTT7=
EXTT8=
EXTT9=
PLAYORDER=
